<mxfile host="Electron" modified="2024-03-25T18:51:21.071Z" agent="Mozilla/5.0 (Windows NT 10.0; Win64; x64) AppleWebKit/537.36 (KHTML, like Gecko) draw.io/24.1.0 Chrome/120.0.6099.109 Electron/28.1.0 Safari/537.36" etag="pfCO_BVcV3WhIfWwiiW4" version="24.1.0" type="device" pages="2">
  <diagram id="uKAmTTxnv9JwN7EItHdT" name="Graphe">
    <mxGraphModel dx="1418" dy="820" grid="0" gridSize="10" guides="1" tooltips="1" connect="1" arrows="1" fold="1" page="1" pageScale="1" pageWidth="1100" pageHeight="850" math="0" shadow="0">
      <root>
        <mxCell id="0" />
        <mxCell id="1" parent="0" />
        <mxCell id="7OQeO7mFco7BPiHIS_WP-1" value="" style="ellipse;whiteSpace=wrap;html=1;aspect=fixed;fillColor=#f5f5f5;strokeColor=#666666;fontColor=#333333;" parent="1" vertex="1">
          <mxGeometry x="296" y="153" width="60" height="60" as="geometry" />
        </mxCell>
        <mxCell id="7OQeO7mFco7BPiHIS_WP-9" style="rounded=0;orthogonalLoop=1;jettySize=auto;html=1;exitX=0;exitY=1;exitDx=0;exitDy=0;entryX=1;entryY=0;entryDx=0;entryDy=0;endArrow=none;endFill=0;" parent="1" source="7OQeO7mFco7BPiHIS_WP-2" target="7OQeO7mFco7BPiHIS_WP-4" edge="1">
          <mxGeometry relative="1" as="geometry" />
        </mxCell>
        <mxCell id="7OQeO7mFco7BPiHIS_WP-10" style="rounded=0;orthogonalLoop=1;jettySize=auto;html=1;exitX=0.5;exitY=1;exitDx=0;exitDy=0;endArrow=none;endFill=0;entryX=0.5;entryY=0;entryDx=0;entryDy=0;" parent="1" source="7OQeO7mFco7BPiHIS_WP-2" target="7OQeO7mFco7BPiHIS_WP-5" edge="1">
          <mxGeometry relative="1" as="geometry">
            <mxPoint x="565" y="277" as="targetPoint" />
          </mxGeometry>
        </mxCell>
        <mxCell id="7OQeO7mFco7BPiHIS_WP-2" value="" style="ellipse;whiteSpace=wrap;html=1;aspect=fixed;fillColor=#dae8fc;strokeColor=#6c8ebf;" parent="1" vertex="1">
          <mxGeometry x="535" y="153" width="60" height="60" as="geometry" />
        </mxCell>
        <mxCell id="7OQeO7mFco7BPiHIS_WP-11" style="rounded=0;orthogonalLoop=1;jettySize=auto;html=1;exitX=1;exitY=1;exitDx=0;exitDy=0;entryX=0;entryY=0;entryDx=0;entryDy=0;endArrow=none;endFill=0;" parent="1" source="7OQeO7mFco7BPiHIS_WP-3" target="7OQeO7mFco7BPiHIS_WP-6" edge="1">
          <mxGeometry relative="1" as="geometry" />
        </mxCell>
        <mxCell id="7OQeO7mFco7BPiHIS_WP-15" style="edgeStyle=none;rounded=0;orthogonalLoop=1;jettySize=auto;html=1;exitX=0.5;exitY=0;exitDx=0;exitDy=0;entryX=0.5;entryY=1;entryDx=0;entryDy=0;endArrow=none;endFill=0;" parent="1" source="7OQeO7mFco7BPiHIS_WP-3" target="7OQeO7mFco7BPiHIS_WP-1" edge="1">
          <mxGeometry relative="1" as="geometry" />
        </mxCell>
        <mxCell id="7OQeO7mFco7BPiHIS_WP-3" value="" style="ellipse;whiteSpace=wrap;html=1;aspect=fixed;fillColor=#d5e8d4;strokeColor=#82b366;" parent="1" vertex="1">
          <mxGeometry x="296" y="284" width="60" height="60" as="geometry" />
        </mxCell>
        <mxCell id="7OQeO7mFco7BPiHIS_WP-14" style="edgeStyle=none;rounded=0;orthogonalLoop=1;jettySize=auto;html=1;exitX=0.5;exitY=1;exitDx=0;exitDy=0;entryX=0.5;entryY=0;entryDx=0;entryDy=0;endArrow=none;endFill=0;" parent="1" source="7OQeO7mFco7BPiHIS_WP-4" target="7OQeO7mFco7BPiHIS_WP-6" edge="1">
          <mxGeometry relative="1" as="geometry" />
        </mxCell>
        <mxCell id="7OQeO7mFco7BPiHIS_WP-4" value="" style="ellipse;whiteSpace=wrap;html=1;aspect=fixed;fillColor=#d5e8d4;strokeColor=#82b366;" parent="1" vertex="1">
          <mxGeometry x="416" y="284" width="60" height="60" as="geometry" />
        </mxCell>
        <mxCell id="7OQeO7mFco7BPiHIS_WP-5" value="" style="ellipse;whiteSpace=wrap;html=1;aspect=fixed;fillColor=#d5e8d4;strokeColor=#82b366;" parent="1" vertex="1">
          <mxGeometry x="535" y="284" width="60" height="60" as="geometry" />
        </mxCell>
        <mxCell id="7OQeO7mFco7BPiHIS_WP-12" style="rounded=0;orthogonalLoop=1;jettySize=auto;html=1;exitX=1;exitY=0;exitDx=0;exitDy=0;entryX=0;entryY=1;entryDx=0;entryDy=0;endArrow=none;endFill=0;" parent="1" source="7OQeO7mFco7BPiHIS_WP-6" target="7OQeO7mFco7BPiHIS_WP-5" edge="1">
          <mxGeometry relative="1" as="geometry" />
        </mxCell>
        <mxCell id="7OQeO7mFco7BPiHIS_WP-6" value="" style="ellipse;whiteSpace=wrap;html=1;aspect=fixed;fillColor=#dae8fc;strokeColor=#6c8ebf;" parent="1" vertex="1">
          <mxGeometry x="416" y="416" width="60" height="60" as="geometry" />
        </mxCell>
        <mxCell id="7OQeO7mFco7BPiHIS_WP-22" style="edgeStyle=orthogonalEdgeStyle;rounded=0;orthogonalLoop=1;jettySize=auto;html=1;exitX=1;exitY=0.5;exitDx=0;exitDy=0;entryX=0;entryY=0.5;entryDx=0;entryDy=0;endArrow=none;endFill=0;" parent="1" source="7OQeO7mFco7BPiHIS_WP-1" target="7OQeO7mFco7BPiHIS_WP-2" edge="1">
          <mxGeometry relative="1" as="geometry">
            <mxPoint x="476" y="183" as="sourcePoint" />
          </mxGeometry>
        </mxCell>
      </root>
    </mxGraphModel>
  </diagram>
  <diagram id="z388m7l5LuivpN1CKd1P" name="DCC - horaire">
    <mxGraphModel dx="1418" dy="820" grid="0" gridSize="10" guides="1" tooltips="1" connect="1" arrows="1" fold="1" page="1" pageScale="1" pageWidth="1100" pageHeight="850" math="0" shadow="0">
      <root>
        <mxCell id="85yLzxxCpr_S9cZG4F_3-0" />
        <mxCell id="85yLzxxCpr_S9cZG4F_3-1" parent="85yLzxxCpr_S9cZG4F_3-0" />
        <mxCell id="85yLzxxCpr_S9cZG4F_3-2" value="&lt;b&gt;Periode&lt;/b&gt;" style="swimlane;fontStyle=0;align=center;verticalAlign=top;childLayout=stackLayout;horizontal=1;startSize=28;horizontalStack=0;resizeParent=1;resizeParentMax=0;resizeLast=0;collapsible=0;marginBottom=0;html=1;fontFamily=Tahoma;" parent="85yLzxxCpr_S9cZG4F_3-1" vertex="1">
          <mxGeometry x="318" y="65" width="290" height="174" as="geometry" />
        </mxCell>
        <mxCell id="85yLzxxCpr_S9cZG4F_3-3" value="attributs" style="text;html=1;strokeColor=none;fillColor=none;align=center;verticalAlign=middle;spacingLeft=4;spacingRight=4;overflow=hidden;rotatable=0;points=[[0,0.5],[1,0.5]];portConstraint=eastwest;fontFamily=Tahoma;" parent="85yLzxxCpr_S9cZG4F_3-2" vertex="1">
          <mxGeometry y="28" width="290" height="20" as="geometry" />
        </mxCell>
        <mxCell id="85yLzxxCpr_S9cZG4F_3-4" value="- jourSemaine : int" style="text;html=1;strokeColor=none;fillColor=none;align=left;verticalAlign=middle;spacingLeft=4;spacingRight=4;overflow=hidden;rotatable=0;points=[[0,0.5],[1,0.5]];portConstraint=eastwest;fontFamily=Tahoma;" parent="85yLzxxCpr_S9cZG4F_3-2" vertex="1">
          <mxGeometry y="48" width="290" height="20" as="geometry" />
        </mxCell>
        <mxCell id="85yLzxxCpr_S9cZG4F_3-10" value="- debut : float" style="text;html=1;strokeColor=none;fillColor=none;align=left;verticalAlign=middle;spacingLeft=4;spacingRight=4;overflow=hidden;rotatable=0;points=[[0,0.5],[1,0.5]];portConstraint=eastwest;fontFamily=Tahoma;" parent="85yLzxxCpr_S9cZG4F_3-2" vertex="1">
          <mxGeometry y="68" width="290" height="20" as="geometry" />
        </mxCell>
        <mxCell id="85yLzxxCpr_S9cZG4F_3-11" value="- fin : float" style="text;html=1;strokeColor=none;fillColor=none;align=left;verticalAlign=middle;spacingLeft=4;spacingRight=4;overflow=hidden;rotatable=0;points=[[0,0.5],[1,0.5]];portConstraint=eastwest;fontFamily=Tahoma;" parent="85yLzxxCpr_S9cZG4F_3-2" vertex="1">
          <mxGeometry y="88" width="290" height="20" as="geometry" />
        </mxCell>
        <mxCell id="85yLzxxCpr_S9cZG4F_3-7" value="" style="line;strokeWidth=1;fillColor=none;align=left;verticalAlign=middle;spacingTop=-1;spacingLeft=3;spacingRight=3;rotatable=0;labelPosition=right;points=[];portConstraint=eastwest;fontFamily=Tahoma;" parent="85yLzxxCpr_S9cZG4F_3-2" vertex="1">
          <mxGeometry y="108" width="290" height="8" as="geometry" />
        </mxCell>
        <mxCell id="85yLzxxCpr_S9cZG4F_3-8" value="opérations" style="text;html=1;strokeColor=none;fillColor=none;align=center;verticalAlign=middle;spacingLeft=4;spacingRight=4;overflow=hidden;rotatable=0;points=[[0,0.5],[1,0.5]];portConstraint=eastwest;fontFamily=Tahoma;" parent="85yLzxxCpr_S9cZG4F_3-2" vertex="1">
          <mxGeometry y="116" width="290" height="20" as="geometry" />
        </mxCell>
        <mxCell id="85yLzxxCpr_S9cZG4F_3-9" value="+ « create » Periode (jourSemaine : int, debut : float,&lt;br&gt;&lt;span style=&quot;white-space: pre&quot;&gt;&#x9;&lt;/span&gt;&amp;nbsp;fin : float)" style="text;html=1;strokeColor=none;fillColor=none;align=left;verticalAlign=middle;spacingLeft=4;spacingRight=4;overflow=hidden;rotatable=0;points=[[0,0.5],[1,0.5]];portConstraint=eastwest;fontFamily=Tahoma;" parent="85yLzxxCpr_S9cZG4F_3-2" vertex="1">
          <mxGeometry y="136" width="290" height="38" as="geometry" />
        </mxCell>
        <mxCell id="85yLzxxCpr_S9cZG4F_3-12" value="&lt;b&gt;Local&lt;/b&gt;" style="swimlane;fontStyle=0;align=center;verticalAlign=top;childLayout=stackLayout;horizontal=1;startSize=28;horizontalStack=0;resizeParent=1;resizeParentMax=0;resizeLast=0;collapsible=0;marginBottom=0;html=1;fontFamily=Tahoma;" parent="85yLzxxCpr_S9cZG4F_3-1" vertex="1">
          <mxGeometry x="676" y="354" width="185" height="118" as="geometry" />
        </mxCell>
        <mxCell id="85yLzxxCpr_S9cZG4F_3-13" value="attributs" style="text;html=1;strokeColor=none;fillColor=none;align=center;verticalAlign=middle;spacingLeft=4;spacingRight=4;overflow=hidden;rotatable=0;points=[[0,0.5],[1,0.5]];portConstraint=eastwest;fontFamily=Tahoma;" parent="85yLzxxCpr_S9cZG4F_3-12" vertex="1">
          <mxGeometry y="28" width="185" height="20" as="geometry" />
        </mxCell>
        <mxCell id="85yLzxxCpr_S9cZG4F_3-14" value="- code : string" style="text;html=1;strokeColor=none;fillColor=none;align=left;verticalAlign=middle;spacingLeft=4;spacingRight=4;overflow=hidden;rotatable=0;points=[[0,0.5],[1,0.5]];portConstraint=eastwest;fontFamily=Tahoma;" parent="85yLzxxCpr_S9cZG4F_3-12" vertex="1">
          <mxGeometry y="48" width="185" height="20" as="geometry" />
        </mxCell>
        <mxCell id="85yLzxxCpr_S9cZG4F_3-17" value="" style="line;strokeWidth=1;fillColor=none;align=left;verticalAlign=middle;spacingTop=-1;spacingLeft=3;spacingRight=3;rotatable=0;labelPosition=right;points=[];portConstraint=eastwest;fontFamily=Tahoma;" parent="85yLzxxCpr_S9cZG4F_3-12" vertex="1">
          <mxGeometry y="68" width="185" height="8" as="geometry" />
        </mxCell>
        <mxCell id="85yLzxxCpr_S9cZG4F_3-18" value="opérations" style="text;html=1;strokeColor=none;fillColor=none;align=center;verticalAlign=middle;spacingLeft=4;spacingRight=4;overflow=hidden;rotatable=0;points=[[0,0.5],[1,0.5]];portConstraint=eastwest;fontFamily=Tahoma;" parent="85yLzxxCpr_S9cZG4F_3-12" vertex="1">
          <mxGeometry y="76" width="185" height="20" as="geometry" />
        </mxCell>
        <mxCell id="85yLzxxCpr_S9cZG4F_3-19" value="+ « create » Local(code : string)" style="text;html=1;strokeColor=none;fillColor=none;align=left;verticalAlign=middle;spacingLeft=4;spacingRight=4;overflow=hidden;rotatable=0;points=[[0,0.5],[1,0.5]];portConstraint=eastwest;fontFamily=Tahoma;" parent="85yLzxxCpr_S9cZG4F_3-12" vertex="1">
          <mxGeometry y="96" width="185" height="22" as="geometry" />
        </mxCell>
        <mxCell id="85yLzxxCpr_S9cZG4F_3-20" value="&lt;b&gt;Cours&lt;/b&gt;" style="swimlane;fontStyle=0;align=center;verticalAlign=top;childLayout=stackLayout;horizontal=1;startSize=28;horizontalStack=0;resizeParent=1;resizeParentMax=0;resizeLast=0;collapsible=0;marginBottom=0;html=1;fontFamily=Tahoma;" parent="85yLzxxCpr_S9cZG4F_3-1" vertex="1">
          <mxGeometry x="676" y="65" width="185" height="171" as="geometry" />
        </mxCell>
        <mxCell id="85yLzxxCpr_S9cZG4F_3-21" value="attributs" style="text;html=1;strokeColor=none;fillColor=none;align=center;verticalAlign=middle;spacingLeft=4;spacingRight=4;overflow=hidden;rotatable=0;points=[[0,0.5],[1,0.5]];portConstraint=eastwest;fontFamily=Tahoma;" parent="85yLzxxCpr_S9cZG4F_3-20" vertex="1">
          <mxGeometry y="28" width="185" height="20" as="geometry" />
        </mxCell>
        <mxCell id="85yLzxxCpr_S9cZG4F_3-22" value="- sigle : string" style="text;html=1;strokeColor=none;fillColor=none;align=left;verticalAlign=middle;spacingLeft=4;spacingRight=4;overflow=hidden;rotatable=0;points=[[0,0.5],[1,0.5]];portConstraint=eastwest;fontFamily=Tahoma;" parent="85yLzxxCpr_S9cZG4F_3-20" vertex="1">
          <mxGeometry y="48" width="185" height="20" as="geometry" />
        </mxCell>
        <mxCell id="85yLzxxCpr_S9cZG4F_3-26" value="- periode : Periode" style="text;html=1;strokeColor=none;fillColor=none;align=left;verticalAlign=middle;spacingLeft=4;spacingRight=4;overflow=hidden;rotatable=0;points=[[0,0.5],[1,0.5]];portConstraint=eastwest;fontFamily=Tahoma;" parent="85yLzxxCpr_S9cZG4F_3-20" vertex="1">
          <mxGeometry y="68" width="185" height="20" as="geometry" />
        </mxCell>
        <mxCell id="85yLzxxCpr_S9cZG4F_3-27" value="- local : Local" style="text;html=1;strokeColor=none;fillColor=none;align=left;verticalAlign=middle;spacingLeft=4;spacingRight=4;overflow=hidden;rotatable=0;points=[[0,0.5],[1,0.5]];portConstraint=eastwest;fontFamily=Tahoma;" parent="85yLzxxCpr_S9cZG4F_3-20" vertex="1">
          <mxGeometry y="88" width="185" height="20" as="geometry" />
        </mxCell>
        <mxCell id="85yLzxxCpr_S9cZG4F_3-23" value="" style="line;strokeWidth=1;fillColor=none;align=left;verticalAlign=middle;spacingTop=-1;spacingLeft=3;spacingRight=3;rotatable=0;labelPosition=right;points=[];portConstraint=eastwest;fontFamily=Tahoma;" parent="85yLzxxCpr_S9cZG4F_3-20" vertex="1">
          <mxGeometry y="108" width="185" height="8" as="geometry" />
        </mxCell>
        <mxCell id="85yLzxxCpr_S9cZG4F_3-24" value="opérations" style="text;html=1;strokeColor=none;fillColor=none;align=center;verticalAlign=middle;spacingLeft=4;spacingRight=4;overflow=hidden;rotatable=0;points=[[0,0.5],[1,0.5]];portConstraint=eastwest;fontFamily=Tahoma;" parent="85yLzxxCpr_S9cZG4F_3-20" vertex="1">
          <mxGeometry y="116" width="185" height="20" as="geometry" />
        </mxCell>
        <mxCell id="85yLzxxCpr_S9cZG4F_3-25" value="+ « create » Cours(sigle : string, &lt;br&gt;&lt;span style=&quot;white-space: pre&quot;&gt;&#x9;&lt;/span&gt;periode : Periode)" style="text;html=1;strokeColor=none;fillColor=none;align=left;verticalAlign=middle;spacingLeft=4;spacingRight=4;overflow=hidden;rotatable=0;points=[[0,0.5],[1,0.5]];portConstraint=eastwest;fontFamily=Tahoma;" parent="85yLzxxCpr_S9cZG4F_3-20" vertex="1">
          <mxGeometry y="136" width="185" height="35" as="geometry" />
        </mxCell>
        <mxCell id="85yLzxxCpr_S9cZG4F_3-28" value="&lt;b&gt;ControleurAssignationLocaux&lt;/b&gt;" style="swimlane;fontStyle=0;align=center;verticalAlign=top;childLayout=stackLayout;horizontal=1;startSize=28;horizontalStack=0;resizeParent=1;resizeParentMax=0;resizeLast=0;collapsible=0;marginBottom=0;html=1;fontFamily=Tahoma;" parent="85yLzxxCpr_S9cZG4F_3-1" vertex="1">
          <mxGeometry x="285" y="280" width="323" height="260" as="geometry" />
        </mxCell>
        <mxCell id="85yLzxxCpr_S9cZG4F_3-29" value="attributs" style="text;html=1;strokeColor=none;fillColor=none;align=center;verticalAlign=middle;spacingLeft=4;spacingRight=4;overflow=hidden;rotatable=0;points=[[0,0.5],[1,0.5]];portConstraint=eastwest;fontFamily=Tahoma;" parent="85yLzxxCpr_S9cZG4F_3-28" vertex="1">
          <mxGeometry y="28" width="323" height="20" as="geometry" />
        </mxCell>
        <mxCell id="85yLzxxCpr_S9cZG4F_3-34" value="- locaux : Local[]" style="text;html=1;strokeColor=none;fillColor=none;align=left;verticalAlign=middle;spacingLeft=4;spacingRight=4;overflow=hidden;rotatable=0;points=[[0,0.5],[1,0.5]];portConstraint=eastwest;fontFamily=Tahoma;" parent="85yLzxxCpr_S9cZG4F_3-28" vertex="1">
          <mxGeometry y="48" width="323" height="20" as="geometry" />
        </mxCell>
        <mxCell id="85yLzxxCpr_S9cZG4F_3-30" value="- cours : Cours[]" style="text;html=1;strokeColor=none;fillColor=none;align=left;verticalAlign=middle;spacingLeft=4;spacingRight=4;overflow=hidden;rotatable=0;points=[[0,0.5],[1,0.5]];portConstraint=eastwest;fontFamily=Tahoma;" parent="85yLzxxCpr_S9cZG4F_3-28" vertex="1">
          <mxGeometry y="68" width="323" height="20" as="geometry" />
        </mxCell>
        <mxCell id="85yLzxxCpr_S9cZG4F_3-31" value="" style="line;strokeWidth=1;fillColor=none;align=left;verticalAlign=middle;spacingTop=-1;spacingLeft=3;spacingRight=3;rotatable=0;labelPosition=right;points=[];portConstraint=eastwest;fontFamily=Tahoma;" parent="85yLzxxCpr_S9cZG4F_3-28" vertex="1">
          <mxGeometry y="88" width="323" height="8" as="geometry" />
        </mxCell>
        <mxCell id="85yLzxxCpr_S9cZG4F_3-32" value="opérations" style="text;html=1;strokeColor=none;fillColor=none;align=center;verticalAlign=middle;spacingLeft=4;spacingRight=4;overflow=hidden;rotatable=0;points=[[0,0.5],[1,0.5]];portConstraint=eastwest;fontFamily=Tahoma;" parent="85yLzxxCpr_S9cZG4F_3-28" vertex="1">
          <mxGeometry y="96" width="323" height="20" as="geometry" />
        </mxCell>
        <mxCell id="85yLzxxCpr_S9cZG4F_3-33" value="+ « create »&amp;nbsp;&lt;span style=&quot;text-align: center&quot;&gt;ControleurAssignationLocaux&lt;/span&gt;(locaux : Local[], &lt;br&gt;&lt;span style=&quot;white-space: pre&quot;&gt;&#x9;&lt;/span&gt;cours : Cours[])" style="text;html=1;strokeColor=none;fillColor=none;align=left;verticalAlign=middle;spacingLeft=4;spacingRight=4;overflow=hidden;rotatable=0;points=[[0,0.5],[1,0.5]];portConstraint=eastwest;fontFamily=Tahoma;" parent="85yLzxxCpr_S9cZG4F_3-28" vertex="1">
          <mxGeometry y="116" width="323" height="32" as="geometry" />
        </mxCell>
        <mxCell id="85yLzxxCpr_S9cZG4F_3-36" value="&lt;span style=&quot;color: rgb(0, 0, 0); font-size: 12px; font-style: normal; font-weight: 400; letter-spacing: normal; text-align: left; text-indent: 0px; text-transform: none; word-spacing: 0px; background-color: rgb(248, 249, 250); display: inline; float: none;&quot;&gt;- periodesIntersectent(periode1 : Periode, periode2 : &lt;span style=&quot;white-space: pre&quot;&gt;&#x9;&lt;/span&gt;Periode) : boolean&lt;br&gt;&lt;br&gt;&lt;/span&gt;" style="text;whiteSpace=wrap;html=1;fontFamily=Tahoma;" parent="85yLzxxCpr_S9cZG4F_3-28" vertex="1">
          <mxGeometry y="148" width="323" height="40" as="geometry" />
        </mxCell>
        <mxCell id="85yLzxxCpr_S9cZG4F_3-37" value="&lt;span style=&quot;color: rgb(0, 0, 0); font-size: 12px; font-style: normal; font-weight: 400; letter-spacing: normal; text-align: left; text-indent: 0px; text-transform: none; word-spacing: 0px; background-color: rgb(248, 249, 250); display: inline; float: none;&quot;&gt;- trouverLocal(periode : Periode) : Local&lt;br&gt;&lt;br&gt;&lt;/span&gt;" style="text;whiteSpace=wrap;html=1;fontFamily=Tahoma;" parent="85yLzxxCpr_S9cZG4F_3-28" vertex="1">
          <mxGeometry y="188" width="323" height="24" as="geometry" />
        </mxCell>
        <mxCell id="85yLzxxCpr_S9cZG4F_3-42" value="&lt;span style=&quot;color: rgb(0, 0, 0); font-size: 12px; font-style: normal; font-weight: 400; letter-spacing: normal; text-align: left; text-indent: 0px; text-transform: none; word-spacing: 0px; background-color: rgb(248, 249, 250); display: inline; float: none;&quot;&gt;+ affecterLocaux() : void&lt;br&gt;&lt;br&gt;&lt;/span&gt;" style="text;whiteSpace=wrap;html=1;fontFamily=Tahoma;" parent="85yLzxxCpr_S9cZG4F_3-28" vertex="1">
          <mxGeometry y="212" width="323" height="24" as="geometry" />
        </mxCell>
        <mxCell id="o02TqncfnRhthIAR_JiY-0" value="&lt;span style=&quot;color: rgb(0, 0, 0); font-size: 12px; font-style: normal; font-weight: 400; letter-spacing: normal; text-align: left; text-indent: 0px; text-transform: none; word-spacing: 0px; background-color: rgb(248, 249, 250); display: inline; float: none;&quot;&gt;+ « utility » main(args[] : string) : void&lt;/span&gt;" style="text;whiteSpace=wrap;html=1;fontFamily=Tahoma;" vertex="1" parent="85yLzxxCpr_S9cZG4F_3-28">
          <mxGeometry y="236" width="323" height="24" as="geometry" />
        </mxCell>
        <mxCell id="85yLzxxCpr_S9cZG4F_3-44" style="edgeStyle=orthogonalEdgeStyle;rounded=0;orthogonalLoop=1;jettySize=auto;html=1;exitX=0;exitY=0.5;exitDx=0;exitDy=0;entryX=1;entryY=0.5;entryDx=0;entryDy=0;endArrow=diamondThin;endFill=0;endSize=12;fontFamily=Tahoma;" parent="85yLzxxCpr_S9cZG4F_3-1" source="85yLzxxCpr_S9cZG4F_3-14" target="85yLzxxCpr_S9cZG4F_3-33" edge="1">
          <mxGeometry relative="1" as="geometry" />
        </mxCell>
        <mxCell id="85yLzxxCpr_S9cZG4F_3-48" value="1" style="edgeLabel;html=1;align=center;verticalAlign=middle;resizable=0;points=[];fontFamily=Tahoma;" parent="85yLzxxCpr_S9cZG4F_3-44" vertex="1" connectable="0">
          <mxGeometry x="0.2563" y="-1" relative="1" as="geometry">
            <mxPoint x="-15" y="-15" as="offset" />
          </mxGeometry>
        </mxCell>
        <mxCell id="85yLzxxCpr_S9cZG4F_3-45" value="1" style="edgeStyle=orthogonalEdgeStyle;rounded=0;orthogonalLoop=1;jettySize=auto;html=1;exitX=1;exitY=0.5;exitDx=0;exitDy=0;entryX=0;entryY=0.5;entryDx=0;entryDy=0;endArrow=diamondThin;endFill=0;endSize=12;fontFamily=Tahoma;" parent="85yLzxxCpr_S9cZG4F_3-1" source="85yLzxxCpr_S9cZG4F_3-4" target="85yLzxxCpr_S9cZG4F_3-22" edge="1">
          <mxGeometry x="0.6471" y="13" relative="1" as="geometry">
            <mxPoint as="offset" />
          </mxGeometry>
        </mxCell>
        <mxCell id="85yLzxxCpr_S9cZG4F_3-52" value="1" style="edgeLabel;html=1;align=center;verticalAlign=middle;resizable=0;points=[];fontFamily=Tahoma;" parent="85yLzxxCpr_S9cZG4F_3-45" vertex="1" connectable="0">
          <mxGeometry x="-0.3792" relative="1" as="geometry">
            <mxPoint x="-12" y="-13" as="offset" />
          </mxGeometry>
        </mxCell>
        <mxCell id="85yLzxxCpr_S9cZG4F_3-46" style="edgeStyle=orthogonalEdgeStyle;rounded=0;orthogonalLoop=1;jettySize=auto;html=1;exitX=0;exitY=0.5;exitDx=0;exitDy=0;endArrow=diamondThin;endFill=0;endSize=12;fontFamily=Tahoma;" parent="85yLzxxCpr_S9cZG4F_3-1" source="85yLzxxCpr_S9cZG4F_3-27" target="85yLzxxCpr_S9cZG4F_3-34" edge="1">
          <mxGeometry relative="1" as="geometry">
            <mxPoint x="623" y="314.57142857142856" as="targetPoint" />
          </mxGeometry>
        </mxCell>
        <mxCell id="85yLzxxCpr_S9cZG4F_3-50" value="1" style="edgeLabel;html=1;align=center;verticalAlign=middle;resizable=0;points=[];fontFamily=Tahoma;" parent="85yLzxxCpr_S9cZG4F_3-46" vertex="1" connectable="0">
          <mxGeometry x="0.519" relative="1" as="geometry">
            <mxPoint x="-29" y="3" as="offset" />
          </mxGeometry>
        </mxCell>
        <mxCell id="85yLzxxCpr_S9cZG4F_3-51" value="*" style="edgeLabel;html=1;align=center;verticalAlign=middle;resizable=0;points=[];fontFamily=Tahoma;" parent="85yLzxxCpr_S9cZG4F_3-46" vertex="1" connectable="0">
          <mxGeometry x="-0.9259" relative="1" as="geometry">
            <mxPoint x="2" y="-11" as="offset" />
          </mxGeometry>
        </mxCell>
        <mxCell id="85yLzxxCpr_S9cZG4F_3-47" value="*" style="edgeStyle=orthogonalEdgeStyle;rounded=0;orthogonalLoop=1;jettySize=auto;html=1;exitX=1;exitY=0.5;exitDx=0;exitDy=0;entryX=1;entryY=0.5;entryDx=0;entryDy=0;endArrow=diamondThin;endFill=0;endSize=12;fontFamily=Tahoma;" parent="85yLzxxCpr_S9cZG4F_3-1" source="85yLzxxCpr_S9cZG4F_3-14" target="85yLzxxCpr_S9cZG4F_3-26" edge="1">
          <mxGeometry x="0.9374" y="-13" relative="1" as="geometry">
            <Array as="points">
              <mxPoint x="902" y="412" />
              <mxPoint x="902" y="143" />
            </Array>
            <mxPoint as="offset" />
          </mxGeometry>
        </mxCell>
        <mxCell id="85yLzxxCpr_S9cZG4F_3-54" value="1" style="edgeLabel;html=1;align=center;verticalAlign=middle;resizable=0;points=[];fontFamily=Tahoma;" parent="85yLzxxCpr_S9cZG4F_3-47" vertex="1" connectable="0">
          <mxGeometry x="-0.8161" y="2" relative="1" as="geometry">
            <mxPoint x="-21" y="-8" as="offset" />
          </mxGeometry>
        </mxCell>
        <mxCell id="85yLzxxCpr_S9cZG4F_3-49" value="*" style="text;html=1;align=center;verticalAlign=middle;resizable=0;points=[];autosize=1;strokeColor=none;fillColor=none;fontFamily=Tahoma;" parent="85yLzxxCpr_S9cZG4F_3-1" vertex="1">
          <mxGeometry x="658" y="387" width="17" height="18" as="geometry" />
        </mxCell>
      </root>
    </mxGraphModel>
  </diagram>
</mxfile>
